<?xml version="1.0" encoding="UTF-8" standalone="no"?>
<svg xmlns="http://www.w3.org/2000/svg" width="512" height="512" viewBox="0 0 512 512">
  <circle cx="256" cy="256" r="256" fill="#60A630"/>
  <g fill="#FFFFFF">
    <path d="M128 176c0-8.8 7.2-16 16-16h224c8.8 0 16 7.2 16 16v32c0 8.8-7.2 16-16 16H144c-8.8 0-16-7.2-16-16v-32z"/>
    <path d="M128 256c0-8.8 7.2-16 16-16h224c8.8 0 16 7.2 16 16v32c0 8.8-7.2 16-16 16H144c-8.8 0-16-7.2-16-16v-32z"/>
    <path d="M128 336c0-8.8 7.2-16 16-16h224c8.8 0 16 7.2 16 16v32c0 8.8-7.2 16-16 16H144c-8.8 0-16-7.2-16-16v-32z"/>
    <path d="M400 176v192c0 8.8-7.2 16-16 16h-32c-8.8 0-16-7.2-16-16V176c0-8.8 7.2-16 16-16h32c8.8 0 16 7.2 16 16z"/>
  </g>
</svg>